<?xml version="1.0" standalone="no"?>
<!DOCTYPE svg PUBLIC "-//W3C//DTD SVG 20010904//EN"
 "http://www.w3.org/TR/2001/REC-SVG-20010904/DTD/svg10.dtd">
<svg version="1.0" xmlns="http://www.w3.org/2000/svg"
 width="300.000000pt" height="300.000000pt" viewBox="0 0 300.000000 300.000000"
 preserveAspectRatio="xMidYMid meet">
<metadata>
Created by potrace 1.14, written by Peter Selinger 2001-2017
</metadata>
<g transform="translate(0.000000,300.000000) scale(0.100000,-0.100000)"
fill="#000000" stroke="none">
<path d="M1203 2688 c-4 -7 -6 -22 -5 -34 2 -16 -15 -32 -85 -74 -222 -136
-386 -369 -444 -635 -18 -81 -16 -292 3 -377 12 -53 13 -68 3 -68 -7 0 -24 -9
-38 -20 -22 -18 -24 -24 -16 -53 12 -44 11 -51 -5 -37 -8 6 -25 10 -38 8 -20
-3 -23 -8 -21 -49 0 -26 6 -56 12 -68 15 -28 61 -29 68 -1 3 11 9 20 13 20 4
0 51 -154 104 -342 54 -189 102 -357 107 -375 7 -20 21 -37 42 -47 18 -8 37
-24 44 -35 13 -21 85 -51 201 -82 325 -87 851 -52 971 66 22 22 23 27 16 104
-7 81 -7 82 -44 100 -186 95 -681 128 -981 66 -36 -7 -66 -12 -68 -10 -5 4
-178 376 -196 421 l-16 39 26 -35 c90 -117 252 -238 389 -291 196 -76 424 -89
605 -35 l85 25 20 -24 c30 -36 45 -31 45 13 0 32 5 41 26 51 15 6 58 32 96 57
59 38 68 47 57 60 -10 13 -15 12 -38 -3 -66 -44 -136 -83 -148 -83 -27 0 -12
27 25 44 102 49 240 175 319 291 150 223 188 528 97 789 -99 285 -355 510
-646 570 -45 9 -124 16 -190 15 -105 0 -160 -9 -297 -50 -8 -2 -16 3 -18 12
-3 11 5 19 21 23 24 6 34 25 20 39 -3 3 -19 1 -36 -5 -25 -9 -31 -8 -44 11
-17 24 -29 27 -41 9z m32 -18 c3 -5 3 -15 -1 -21 -6 -11 -23 6 -24 24 0 10 18
9 25 -3z m84 -14 c-2 -2 -29 -14 -59 -26 -197 -78 -387 -256 -485 -455 -68
-138 -86 -215 -95 -395 l-7 -155 -1 131 c-2 111 2 147 23 230 45 178 124 315
259 449 85 84 197 161 294 201 53 22 81 30 71 20z m374 -58 c41 -32 55 -36 36
-10 -11 14 -11 15 1 5 8 -7 18 -13 23 -13 4 0 5 6 1 13 -5 8 -3 8 9 -2 9 -7
15 -17 12 -21 -7 -12 27 -36 53 -38 12 0 20 3 17 8 -4 6 2 7 11 3 12 -4 15 -3
10 5 -11 18 -4 15 34 -13 19 -14 29 -25 23 -25 -6 0 -16 7 -23 15 -7 8 -17 15
-23 15 -6 0 2 -14 19 -32 26 -28 19 -31 -14 -4 -8 5 -24 12 -35 13 -18 3 -15
-3 18 -37 21 -22 35 -40 29 -40 -5 0 -30 21 -54 46 -25 25 -58 55 -75 67 l-30
21 24 -27 c31 -34 13 -36 -19 -2 -24 25 -47 35 -34 14 4 -8 0 -8 -15 0 -25 14
-28 23 -3 14 15 -6 15 -5 3 11 -10 12 -22 15 -40 11 -19 -4 -22 -3 -11 4 12 9
12 11 -2 16 -31 12 -53 0 -71 -39 -15 -32 -16 -40 -5 -47 9 -6 10 -9 1 -9 -7
0 -32 13 -55 29 -24 16 -54 32 -68 35 -15 4 -9 -2 15 -14 22 -11 51 -29 65
-40 25 -19 25 -19 5 -35 -19 -16 -19 -16 3 -5 19 10 28 7 62 -20 22 -18 40
-36 40 -41 0 -5 -29 -24 -65 -41 -64 -32 -65 -32 -80 -13 -16 19 -16 19 -5 -2
8 -18 7 -24 -7 -33 -16 -11 -16 -11 2 -5 13 4 25 -1 38 -17 l18 -23 -11 23
c-12 24 -6 42 14 42 6 0 34 14 61 31 l50 32 42 -49 c24 -27 43 -51 43 -55 0
-3 -12 -11 -26 -18 -15 -6 -24 -14 -21 -17 3 -3 17 2 32 12 27 17 27 17 53
-16 15 -18 35 -46 45 -61 l18 -28 -68 -35 c-37 -19 -62 -35 -55 -36 7 0 40 14
74 31 45 23 63 28 68 18 6 -8 9 -6 12 7 2 10 5 -20 5 -68 0 -78 -2 -88 -19
-94 -11 -3 -17 -8 -15 -11 3 -2 15 1 27 7 26 14 34 6 51 -53 5 -21 19 -47 30
-58 12 -12 19 -22 17 -24 -13 -12 -170 -85 -176 -82 -4 3 -15 -4 -26 -14 -18
-17 -18 -18 2 -12 18 4 23 -5 43 -66 13 -39 20 -73 17 -76 -16 -16 -188 -78
-218 -79 -19 -1 -37 -4 -40 -8 -3 -4 -26 4 -52 17 -38 19 -57 23 -101 18 -47
-5 -58 -2 -76 16 -11 11 -25 21 -31 21 -5 0 -10 6 -10 13 0 9 -2 9 -8 -1 -5
-7 -41 -15 -89 -19 l-80 -6 -11 44 c-8 32 -8 45 1 51 6 3 15 4 20 1 5 -3 13 0
18 8 12 20 -10 40 -36 33 -21 -5 -25 -1 -33 38 -6 24 -10 33 -11 20 -1 -13 -5
-21 -10 -17 -5 3 -12 1 -16 -5 -3 -5 3 -10 14 -10 12 0 21 -6 21 -13 0 -10
-13 -13 -54 -9 -36 3 -56 0 -61 -8 -11 -17 10 -27 71 -35 37 -4 55 -11 58 -23
13 -40 23 -111 15 -106 -5 3 -9 1 -9 -3 0 -5 -13 -17 -30 -26 -27 -17 -34 -15
-31 5 0 5 -5 7 -11 5 -7 -1 -20 13 -28 30 -11 23 -22 33 -39 33 -22 0 -23 3
-19 45 6 46 -7 69 -23 44 -6 -10 -9 -5 -10 16 l-2 30 -4 -28 c-4 -24 -9 -28
-31 -25 -32 4 -40 33 -22 91 13 46 33 44 41 -4 6 -29 7 -30 8 -7 1 36 28 63
47 47 7 -6 16 -19 19 -30 10 -32 25 -11 25 35 0 28 7 51 20 66 11 12 22 39 26
59 10 63 15 72 56 102 23 16 35 29 28 29 -10 0 -10 3 0 15 7 8 19 15 26 15 8
0 19 9 26 20 18 28 30 25 28 -7 -1 -16 -1 -37 0 -48 1 -18 2 -18 8 -3 4 10 6
38 4 64 -4 39 -7 45 -23 41 -27 -7 -23 3 16 43 40 39 44 56 15 65 -26 8 -25
18 2 30 24 11 45 67 25 64 -39 -5 -47 2 -47 35 0 19 5 38 10 41 11 7 76 -54
72 -67 -1 -5 4 -8 11 -8 16 0 39 15 37 24 -1 4 19 30 44 57 50 54 57 78 26 86
-26 7 -26 10 12 41 41 35 66 41 169 39 77 -2 89 -5 122 -29z m-423 -4 c0 -9
-7 -14 -17 -12 -25 5 -28 28 -4 28 12 0 21 -6 21 -16z m90 -14 c-14 -11 -38
-24 -55 -30 -16 -7 -38 -16 -47 -21 -10 -5 -30 -9 -45 -9 l-28 1 26 14 c14 8
32 15 40 17 8 2 16 6 19 9 8 9 84 38 100 38 10 0 6 -6 -10 -19z m244 4 c3 -8
2 -12 -4 -9 -6 3 -10 10 -10 16 0 14 7 11 14 -7z m-382 -9 c0 -5 -30 -28 -67
-50 -153 -90 -309 -276 -374 -443 -103 -269 -68 -572 95 -817 132 -200 341
-334 588 -376 94 -16 271 -6 369 20 72 20 110 20 90 1 -4 -5 -42 -18 -83 -30
-96 -28 -281 -37 -386 -21 -390 63 -690 368 -754 764 -19 113 -8 280 24 390
63 215 204 404 390 526 75 49 106 59 108 36z m699 -31 c9 -11 2 -9 -18 6 -18
13 -33 25 -33 27 0 8 38 -17 51 -33z m39 -1 c0 -7 -39 17 -46 28 -3 6 5 3 20
-6 14 -10 26 -19 26 -22z m-231 -19 c2 -2 -2 -4 -10 -4 -8 0 -25 10 -39 21
l-25 20 35 -17 c19 -9 37 -18 39 -20z m-360 -4 c11 -24 11 -24 -3 -6 -9 11
-16 24 -16 30 0 12 5 7 19 -24z m306 -15 c22 -19 36 -35 30 -34 -5 0 -28 15
-49 34 -22 19 -35 35 -30 35 5 -1 27 -16 49 -35z m-346 -15 c0 -10 -3 -8 -9 5
-12 27 -12 43 0 25 5 -8 9 -22 9 -30z m287 6 c3 -15 15 -27 30 -30 28 -7 32
-26 6 -26 -21 0 -86 63 -76 73 15 14 34 6 40 -17z m428 -11 c24 -19 52 -35 62
-35 45 -1 91 -75 55 -88 -9 -3 -11 0 -6 9 5 8 0 7 -11 -3 -17 -15 -25 -15 -54
-5 -53 19 -60 26 -57 60 2 27 -3 34 -40 55 -24 13 -43 28 -43 33 0 22 55 7 94
-26z m-856 -20 c-2 -2 -16 -5 -33 -7 -32 -3 -65 -30 -65 -51 0 -7 -7 -22 -16
-33 -14 -18 -15 -18 -8 6 4 14 8 36 10 48 3 30 13 40 23 23 6 -9 10 -6 15 11
5 19 8 20 16 8 8 -13 10 -12 10 3 0 10 10 21 23 26 18 7 23 5 25 -11 2 -11 2
-21 0 -23z m627 25 c10 -11 16 -20 13 -20 -3 0 -13 9 -23 20 -10 11 -16 20
-13 20 3 0 13 -9 23 -20z m-451 -6 c3 -8 2 -12 -4 -9 -6 3 -10 10 -10 16 0 14
7 11 14 -7z m401 -14 c16 -16 31 -28 33 -25 3 3 14 -2 24 -12 10 -9 18 -13 18
-9 0 4 5 4 10 1 6 -4 8 -11 4 -16 -4 -6 -11 -6 -20 2 -19 16 -18 0 3 -23 9
-10 12 -17 7 -17 -13 2 -129 129 -118 129 6 0 23 -13 39 -30z m-498 -27 c-3
-10 -5 -4 -5 12 0 17 2 24 5 18 2 -7 2 -21 0 -30z m695 -5 c36 -32 41 -73 12
-93 -21 -14 -24 -12 -53 21 -35 39 -36 46 -19 74 16 26 29 25 60 -2z m-780
-34 c2 -20 -1 -38 -8 -42 -6 -4 -19 -22 -28 -39 -9 -18 -21 -33 -26 -33 -6 0
-10 -8 -10 -18 0 -25 -50 -60 -80 -57 -14 1 -31 3 -37 4 -22 2 -14 34 14 59
25 21 28 22 34 5 5 -15 7 -14 10 7 3 17 16 31 39 42 20 10 28 18 18 18 -21 0
-23 12 -5 42 32 58 73 64 79 12z m524 25 c4 -8 9 -7 15 2 12 20 43 -1 47 -32
2 -13 9 -31 15 -39 6 -8 7 -12 3 -8 -5 4 -15 0 -22 -10 -12 -16 -17 -13 -60
29 -44 44 -51 69 -19 69 8 0 17 -5 21 -11z m-663 -62 c-15 -54 -37 -82 -26
-34 3 12 1 18 -4 12 -4 -5 -18 -11 -31 -11 -22 -1 -22 -1 -5 16 10 10 21 16
24 14 4 -2 9 6 12 17 3 12 10 18 15 15 5 -3 12 4 15 16 4 12 9 20 11 17 3 -3
-2 -31 -11 -62z m897 -36 c0 -4 -11 -7 -24 -7 -25 -2 -36 12 -41 55 -3 22 -2
22 31 -10 19 -18 34 -35 34 -38z m301 8 c36 -48 38 -54 22 -63 -10 -5 -25 -18
-34 -28 -9 -9 -19 -15 -23 -11 -10 10 -7 25 4 18 17 -11 11 9 -16 49 -21 30
-24 40 -13 47 8 4 19 3 26 -3 18 -15 16 -2 -4 30 -25 40 -8 22 38 -39z m-179
-4 c12 -16 9 -21 -19 -34 -24 -11 -29 -10 -45 9 -10 12 -18 17 -18 12 0 -6 5
-14 10 -17 6 -4 8 -15 5 -25 -3 -10 -1 -21 5 -25 6 -4 26 -30 45 -58 19 -28
35 -46 35 -39 0 7 5 10 10 7 18 -11 11 6 -22 52 -18 24 -34 40 -36 34 -4 -13
-22 -4 -22 10 0 6 5 7 10 4 6 -3 10 -1 10 5 0 19 19 1 56 -53 20 -29 33 -41
29 -28 -6 18 -4 22 6 16 8 -5 11 -4 6 1 -5 5 -14 9 -20 9 -5 0 -12 6 -15 14
-3 9 0 11 8 6 9 -5 11 -4 6 4 -4 6 -11 9 -16 6 -5 -3 -15 4 -24 16 -11 17 -12
24 -3 34 18 20 33 1 102 -119 32 -58 62 -101 65 -95 4 5 7 -4 7 -21 0 -33 -11
-40 -22 -12 -3 9 -22 45 -41 79 -34 61 -35 62 -53 44 -10 -10 -24 -20 -31 -23
-8 -2 -4 -16 14 -43 33 -48 39 -55 30 -32 -11 29 2 19 30 -24 15 -22 24 -44
20 -47 -4 -4 -9 -2 -11 4 -2 6 -11 20 -19 30 -13 16 -13 14 1 -13 22 -47 4
-40 -25 9 -57 95 -158 245 -170 253 -6 3 -10 11 -10 17 0 6 10 3 21 -8 22 -19
22 -19 8 3 -11 18 -11 25 -1 35 11 11 17 9 33 -11 10 -13 19 -19 19 -14 0 5
-5 14 -10 19 -6 6 -8 18 -4 28 5 14 9 14 23 4 9 -7 19 -17 23 -23z m28 6 c0
-6 10 -21 23 -34 28 -31 71 -107 60 -107 -4 0 -28 31 -53 68 -54 80 -55 82
-41 82 6 0 11 -4 11 -9z m-921 -32 c-19 -11 -24 -3 -8 14 8 9 16 11 18 5 2 -6
-3 -14 -10 -19z m1011 -4 c12 -19 19 -39 15 -45 -3 -5 19 -60 50 -122 32 -62
66 -133 76 -158 15 -35 19 -38 15 -15 -5 28 -5 29 6 7 9 -18 8 -26 -4 -39 -15
-14 -17 -13 -23 8 -4 12 -32 74 -61 136 -30 63 -54 116 -54 119 0 3 -18 32
-40 65 -43 65 -45 69 -31 69 5 0 19 -16 31 -36 12 -19 25 -33 27 -30 3 3 -4
18 -16 34 -12 17 -21 33 -21 36 0 13 9 4 30 -29z m-1206 -43 c-20 -20 -26 -22
-21 -8 4 10 7 21 7 26 0 5 8 16 18 26 16 17 17 17 20 -1 2 -10 -8 -29 -24 -43z
m-30 1 c-8 -26 -12 -52 -10 -58 2 -5 5 -2 5 9 1 15 4 16 16 6 18 -15 11 -30
-16 -30 -13 0 -19 -7 -18 -22 0 -17 2 -19 7 -8 6 13 15 16 38 11 3 0 2 -7 -3
-13 -4 -7 -13 -38 -19 -68 -9 -43 -12 -49 -14 -25 l-2 30 -8 -30 -8 -30 -2 30
-2 30 -9 -30 c-14 -53 1 85 17 148 8 33 11 64 7 69 -3 7 -1 8 5 4 7 -4 12 -1
12 8 0 9 4 16 9 16 5 0 3 -21 -5 -47z m879 36 c28 -8 42 -7 53 2 20 16 19 -3
-3 -44 -9 -18 -16 -38 -15 -44 2 -7 -1 -13 -7 -13 -8 0 -32 27 -84 98 -12 15
4 16 56 1z m123 -16 c21 -28 16 -38 -8 -17 -13 10 -17 12 -10 4 21 -24 13 -34
-10 -14 -13 10 -17 12 -10 4 6 -8 12 -17 12 -21 0 -13 -29 -18 -36 -7 -4 7 -3
8 4 4 8 -5 11 0 10 11 -3 37 2 53 18 53 9 0 23 -8 30 -17z m-766 -12 c0 -10
-7 -21 -15 -25 -10 -4 -15 1 -15 15 0 11 5 17 10 14 6 -3 10 -1 10 4 0 6 2 11
5 11 3 0 5 -9 5 -19z m1156 -84 c11 -23 20 -33 24 -26 4 6 10 7 13 3 3 -5 -1
-15 -9 -21 -11 -11 -19 -1 -49 51 -19 34 -35 67 -35 72 1 14 37 -38 56 -79z
m-31 -3 c20 -36 34 -68 32 -71 -3 -3 -22 27 -41 66 -20 39 -34 71 -32 71 2 0
21 -30 41 -66z m-1405 16 c0 -13 -1 -13 -10 0 -8 13 -10 12 -10 -4 0 -11 -2
-17 -5 -14 -4 3 -3 18 1 33 5 20 9 23 15 13 5 -7 9 -20 9 -28z m1115 -15 c51
-74 38 -82 -14 -9 -23 31 -41 54 -41 50 0 -4 9 -21 21 -38 12 -16 19 -31 16
-34 -3 -3 -17 12 -31 33 -14 20 -26 34 -26 29 0 -4 13 -27 28 -50 47 -69 46
-67 17 -62 -20 4 -25 2 -21 -10 10 -25 -10 -15 -23 13 -8 18 -15 23 -22 16 -8
-8 -7 -18 1 -34 11 -23 11 -23 -9 1 -23 28 -26 41 -10 38 6 -2 14 3 17 11 2 8
0 11 -6 7 -6 -3 -14 -1 -18 5 -4 8 -3 9 4 5 7 -4 12 -3 12 3 0 5 -4 13 -10 16
-5 3 -10 11 -10 18 0 6 7 2 16 -9 14 -17 15 -17 10 -1 -4 12 -2 16 5 11 7 -4
10 -1 7 7 -4 12 24 38 43 39 4 0 24 -25 44 -55z m64 -10 c0 -11 -25 20 -41 50
-5 11 2 7 16 -10 14 -16 25 -34 25 -40z m190 28 c32 -64 50 -113 42 -113 -6 0
-34 56 -69 142 -2 4 -1 8 2 8 3 0 14 -17 25 -37z m-1109 8 c0 -6 -4 -13 -10
-16 -5 -3 -10 1 -10 9 0 9 5 16 10 16 6 0 10 -4 10 -9z m1090 -32 c12 -23 20
-43 18 -45 -3 -2 -14 17 -26 41 -27 56 -20 60 8 4z m-1153 -16 c-3 -10 -5 -2
-5 17 0 19 2 27 5 18 2 -10 2 -26 0 -35z m-38 -43 c-1 -66 -6 -56 -12 23 -2
32 0 52 4 45 5 -7 8 -38 8 -68z m30 -22 c1 -16 -3 -28 -9 -28 -6 0 -10 28 -9
68 1 62 2 64 10 27 4 -22 8 -52 8 -67z m1119 46 c31 -62 24 -64 -11 -3 -15 27
-23 49 -19 49 4 0 18 -21 30 -46z m-1191 16 c3 -11 10 -17 16 -13 7 4 8 0 4
-11 -4 -10 -7 -32 -8 -49 0 -27 -2 -29 -9 -12 l-9 20 -1 -20 c-1 -12 -7 -5
-15 20 l-13 40 -2 -45 c-1 -25 -4 -39 -7 -32 -3 7 -2 38 2 68 5 39 11 54 22
54 8 0 17 -9 20 -20z m-144 -95 c-6 -37 -7 -38 -14 -15 -7 25 -7 25 -8 -4 -1
-16 -4 -27 -7 -23 -4 3 -1 37 6 74 12 63 14 66 22 38 4 -16 5 -48 1 -70z
m1302 22 c2 -28 1 -29 -12 -11 -46 63 -44 61 -37 34 6 -24 6 -24 -10 -5 -17
23 -21 39 -6 30 6 -3 10 -1 10 6 0 8 4 8 15 -1 13 -11 14 -10 9 6 -5 14 -2 12
11 -5 10 -13 19 -38 20 -54z m-154 41 c11 -21 11 -22 -4 -9 -10 7 -17 17 -17
22 0 15 9 10 21 -13z m388 -53 c0 -5 -6 1 -14 15 -8 14 -14 30 -14 35 0 6 6
-1 14 -15 8 -14 14 -29 14 -35z m-306 -23 c47 -75 49 -94 1 -24 -44 66 -57 62
-15 -4 31 -48 39 -70 22 -60 -5 4 -11 1 -13 -5 -2 -7 -23 18 -47 55 -24 37
-41 69 -38 72 3 3 22 -22 43 -55 20 -34 39 -59 42 -57 4 5 -14 39 -54 102 -18
29 -18 29 1 14 17 -14 18 -13 12 3 -13 35 9 15 46 -41z m293 7 c14 -28 23 -54
20 -57 -8 -7 -9 -5 -34 56 -27 66 -20 67 14 1z m-36 26 c0 -2 9 -27 20 -55 25
-65 9 -66 -19 -1 -24 57 -25 61 -11 61 6 0 10 -2 10 -5z m9 -115 c0 -8 -11 8
-25 35 -13 28 -23 57 -23 65 0 8 11 -7 25 -35 13 -27 23 -57 23 -65z m-1542
68 c-3 -7 -5 -2 -5 12 0 14 2 19 5 13 2 -7 2 -19 0 -25z m1184 -21 c35 -55 51
-87 45 -87 -3 0 -20 24 -39 53 -48 76 -49 77 -40 77 4 0 20 -19 34 -43z
m-1008 -108 c-4 -4 -6 27 -3 69 l5 77 3 -69 c2 -38 -1 -73 -5 -77z m24 119
c-3 -8 -6 -5 -6 6 -1 11 2 17 5 13 3 -3 4 -12 1 -19z m965 -43 c3 4 9 1 14 -6
4 -8 3 -10 -4 -5 -16 10 -15 1 3 -34 9 -17 12 -30 7 -30 -7 0 -72 123 -72 138
0 4 10 -10 23 -31 13 -21 26 -35 29 -32z m-1060 -50 l-9 -70 -2 76 c0 42 2 79
7 83 12 13 13 -15 4 -89z m55 28 c-2 -16 -4 -5 -4 22 0 28 2 40 4 28 2 -13 2
-35 0 -50z m969 -6 c14 -27 23 -52 20 -55 -3 -3 -6 0 -6 7 0 7 -4 10 -9 7 -13
-9 -34 22 -27 40 3 8 -1 25 -9 37 -8 12 -15 26 -15 32 0 13 15 -8 46 -68z
m309 33 c17 -33 10 -40 -11 -12 -13 17 -19 42 -9 42 2 0 11 -13 20 -30z
m-1431 -64 c-4 -42 -9 -74 -12 -72 -2 3 -1 39 3 81 4 42 9 74 11 72 3 -3 2
-39 -2 -81z m50 5 c-3 -39 -10 -71 -15 -71 -8 0 -4 80 7 129 10 46 15 12 8
-58z m-104 24 c-6 -30 -8 -33 -9 -13 -1 25 8 62 14 56 2 -2 -1 -21 -5 -43z
m77 -17 c-2 -13 -4 -3 -4 22 0 25 2 35 4 23 2 -13 2 -33 0 -45z m50 10 c-2
-13 -4 -5 -4 17 -1 22 1 32 4 23 2 -10 2 -28 0 -40z m65 -20 c2 -27 0 -48 -4
-48 -5 0 -7 28 -7 63 1 67 6 60 11 -15z m1243 32 c14 -27 14 -30 0 -30 -8 0
-15 5 -15 11 0 5 -4 8 -9 5 -11 -7 -23 22 -15 35 10 17 23 9 39 -21z m212 -2
c-3 -8 -6 -5 -6 6 -1 11 2 17 5 13 3 -3 4 -12 1 -19z m-252 -28 c9 -16 13 -30
11 -30 -3 0 -12 14 -21 30 -9 17 -13 30 -11 30 3 0 12 -13 21 -30z m239 15 c3
-8 1 -15 -4 -15 -6 0 -10 7 -10 15 0 8 2 15 4 15 2 0 6 -7 10 -15z m-259 -25
c17 -33 18 -40 7 -40 -5 0 -16 16 -25 35 -20 42 -4 47 18 5z m-30 -10 c9 -16
13 -30 11 -30 -3 0 -12 14 -21 30 -9 17 -13 30 -11 30 3 0 12 -13 21 -30z
m161 13 l25 -16 -28 -23 c-35 -29 -50 -30 -58 -3 -4 13 0 27 11 40 21 23 19
23 50 2z m108 -32 c3 -22 9 -48 12 -58 5 -12 4 -15 -3 -8 -6 6 -15 31 -22 57
-13 56 -14 61 -2 54 4 -3 11 -23 15 -45z m43 27 c-3 -8 -6 -5 -6 6 -1 11 2 17
5 13 3 -3 4 -12 1 -19z m-338 -53 c0 -5 -9 1 -19 14 -11 13 -20 28 -20 35 0 6
9 0 20 -14 11 -14 20 -29 19 -35z m-1332 -7 c-2 -13 -4 -5 -4 17 -1 22 1 32 4
23 2 -10 2 -28 0 -40z m80 5 c-3 -10 -5 -4 -5 12 0 17 2 24 5 18 2 -7 2 -21 0
-30z m1370 -16 c-6 -16 -138 -98 -148 -91 -4 2 -15 27 -24 55 -9 28 -19 48
-21 46 -3 -3 4 -29 16 -58 11 -30 20 -55 20 -56 0 -6 -201 -103 -214 -103 -12
0 -56 104 -56 132 0 13 196 106 225 106 15 0 29 -7 32 -14 9 -24 85 -17 123
11 34 25 35 25 44 6 5 -11 6 -26 3 -34z m230 31 c-3 -8 -6 -5 -6 6 -1 11 2 17
5 13 3 -3 4 -12 1 -19z m-88 -28 c12 -22 21 -44 21 -48 0 -8 -100 -86 -104
-80 -1 2 -8 23 -15 47 -7 23 -15 49 -17 56 -6 13 60 65 82 65 7 0 21 -18 33
-40z m-1532 -57 c-3 -10 -5 -4 -5 12 0 17 2 24 5 18 2 -7 2 -21 0 -30z m1426
-30 l16 -52 -67 -45 c-37 -24 -73 -46 -81 -48 -13 -3 -41 67 -41 103 0 19 141
112 152 101 3 -4 13 -30 21 -59z m-1456 -50 c-2 -21 -4 -6 -4 32 0 39 2 55 4
38 2 -18 2 -50 0 -70z m1651 32 l0 -30 -8 30 c-4 17 -8 39 -8 50 l-1 20 9 -20
c5 -11 8 -33 8 -50z m-23 9 c9 -63 0 -66 -12 -4 -6 27 -7 50 -3 50 4 0 11 -21
15 -46z m-28 -57 l-3 -71 -44 -34 -44 -34 -7 23 c-3 13 -9 47 -13 75 l-6 51
51 36 c29 20 56 34 61 31 4 -3 7 -38 5 -77z m-1633 5 c4 -24 2 -32 -7 -30 -6
3 -13 24 -15 49 -2 49 11 37 22 -19z m1320 -39 c19 -69 24 -63 -107 -129 l-88
-45 -19 43 c-11 24 -17 32 -13 18 4 -14 7 -37 8 -52 0 -16 4 -28 8 -28 4 0 12
-10 18 -22 9 -21 9 -21 4 4 -5 26 0 30 109 85 63 32 146 80 186 107 52 36 74
45 80 36 10 -16 22 -119 15 -130 -3 -5 -37 -27 -76 -49 -46 -27 -71 -36 -73
-28 -2 6 -9 32 -14 57 l-11 45 6 -50 c3 -27 6 -54 7 -60 1 -10 -169 -104 -190
-105 -6 0 -16 15 -22 33 l-11 32 6 -38 c5 -37 5 -37 -48 -61 l-54 -24 -6 36
c-5 30 3 98 13 106 1 2 12 8 23 14 17 10 18 11 3 12 -11 0 -18 8 -18 19 0 27
-19 38 -70 43 -30 3 -54 0 -72 -11 -20 -11 -31 -12 -39 -4 -9 9 17 22 188 90
6 2 14 -4 17 -14 4 -15 4 -15 2 2 -1 16 18 31 94 71 52 28 102 52 111 53 12 1
21 -16 33 -56z m-1194 3 c0 -8 -8 -17 -17 -20 -20 -8 -37 15 -20 26 19 12 37
9 37 -6z m-94 -22 c10 -8 14 -13 7 -10 -6 4 -14 2 -18 -4 -3 -5 6 -12 20 -16
14 -3 25 -10 25 -16 0 -5 5 -6 10 -3 6 3 10 2 10 -4 0 -5 12 -11 26 -13 31 -4
34 -7 67 -116 l25 -83 -71 3 -72 3 -22 55 -22 55 37 6 37 6 -38 2 c-43 1 -52
15 -63 101 -7 55 4 65 42 34z m-109 -56 c-3 -7 -5 -2 -5 12 0 14 2 19 5 13 2
-7 2 -19 0 -25z m1722 -81 c-9 -28 -24 -45 -54 -63 -23 -13 -45 -24 -48 -24
-4 0 -7 28 -7 63 l1 62 52 35 52 36 8 -36 c5 -22 4 -49 -4 -73z m-1138 37 c18
-45 20 -30 4 24 -11 32 11 28 23 -5 8 -22 11 -24 12 -8 1 20 1 20 15 1 11 -15
15 -16 16 -5 0 8 9 -6 20 -31 l19 -45 -5 45 -5 45 15 -30 c8 -16 14 -37 15
-47 0 -19 -27 -18 -41 3 -8 10 -9 8 -4 -8 7 -24 -9 -33 -18 -10 -3 7 -6 5 -6
-5 -1 -25 -16 -22 -30 5 l-11 22 6 -24 c6 -21 -7 -40 -28 -41 -8 0 -48 118
-48 144 0 17 2 18 10 6 8 -13 10 -12 10 4 0 27 8 17 31 -40z m-44 -39 c13 -38
23 -71 23 -75 0 -3 -13 -6 -29 -6 -25 -1 -32 4 -40 29 -17 48 -12 56 8 12 26
-53 26 -38 1 25 -23 58 -25 74 -8 64 8 -5 9 -2 5 10 -5 11 -3 16 5 14 6 -2 22
-35 35 -73z m260 34 c3 -10 11 -15 19 -12 8 3 14 0 14 -7 0 -6 -4 -9 -9 -6 -5
4 -11 0 -13 -6 -3 -8 -12 0 -21 17 l-16 30 4 -35 5 -35 -14 30 c-9 17 -15 35
-16 42 0 18 42 2 47 -18z m-752 -127 c-4 -5 -45 126 -44 142 0 6 11 -23 24
-64 13 -41 22 -76 20 -78z m683 101 c6 -18 7 -33 3 -33 -5 0 -12 11 -15 24 -3
13 -9 32 -12 43 -5 12 -4 15 3 8 6 -5 15 -25 21 -42z m32 -22 c-1 -17 -30 36
-30 53 1 16 5 12 15 -13 8 -18 15 -36 15 -40z m-505 49 c3 -5 1 -10 -4 -10 -6
0 -11 5 -11 10 0 6 2 10 4 10 3 0 8 -4 11 -10z m195 -4 c0 -6 5 -4 10 4 11 16
11 14 16 -45 1 -22 4 -49 6 -59 2 -10 -2 -21 -8 -23 -7 -2 -21 23 -33 58 -25
75 -25 76 -6 76 8 0 15 -5 15 -11z m1150 -69 l0 -64 -95 -51 c-89 -48 -226
-112 -239 -112 -3 0 -6 8 -7 18 -1 11 -3 9 -8 -7 -5 -18 -27 -31 -104 -62 -54
-22 -103 -37 -108 -34 -17 11 -9 32 26 64 19 17 35 40 35 50 0 10 6 21 13 24
6 3 36 14 64 26 l53 21 10 -33 10 -32 -5 35 -5 35 92 45 c51 25 96 47 100 48
5 2 9 -16 10 -40 l1 -43 6 48 c6 47 8 49 71 87 36 21 68 39 73 39 4 1 7 -28 7
-62z m-1313 42 c6 -6 32 -12 57 -13 52 -1 60 -11 50 -63 -7 -38 -38 -56 -83
-51 -19 2 -28 13 -42 53 -10 28 -18 58 -18 68 -1 19 19 23 36 6z m656 -35 c-2
-6 9 -46 26 -90 16 -43 33 -88 37 -99 5 -15 4 -17 -5 -9 -6 5 -20 35 -31 65
-10 30 -24 53 -29 52 -6 -2 -8 3 -5 11 3 7 -2 30 -10 51 -23 53 -21 74 3 49
10 -10 16 -24 14 -30z m106 -3 c6 -19 9 -36 7 -38 -2 -2 -11 17 -20 44 -9 26
-12 43 -7 38 4 -6 13 -25 20 -44z m50 -11 c0 -13 -1 -13 -8 0 -5 8 -12 26 -15
40 l-7 25 15 -25 c9 -14 15 -32 15 -40z m-90 5 c0 -5 -4 -3 -9 5 -5 8 -9 22
-9 30 0 16 17 -16 18 -35z m65 -5 c5 -17 4 -20 -2 -10 -5 8 -13 26 -16 40 -5
17 -4 20 2 10 5 -8 13 -26 16 -40z m46 17 c0 -18 -2 -19 -10 -7 -13 20 -13 43
0 35 6 -3 10 -16 10 -28z m-222 -1 c14 -31 27 -103 17 -94 -5 4 -14 3 -21 -3
-14 -12 -16 -9 -43 59 -18 46 -19 52 -5 52 10 0 14 -5 10 -16 -4 -10 -2 -13 6
-8 8 5 9 2 5 -9 -3 -10 -2 -17 3 -17 5 0 12 -9 15 -21 4 -11 9 -18 12 -16 2 3
0 14 -5 24 -15 29 -23 73 -14 73 5 0 14 -11 20 -24z m100 -56 c1 -8 -8 3 -17
25 -10 22 -16 44 -13 49 6 11 30 -49 30 -74z m-1018 50 c-20 -13 -33 -13 -25
0 3 6 14 10 23 10 15 0 15 -2 2 -10z m861 -37 c11 -25 18 -51 16 -57 -4 -10
-26 34 -41 82 -13 40 4 23 25 -25z m-51 -9 c11 -26 20 -54 19 -63 0 -16 -49
83 -49 100 0 20 10 7 30 -37z m34 -13 c9 -24 15 -46 12 -49 -6 -5 -46 83 -46
101 0 19 16 -5 34 -52z m145 27 c6 -18 7 -28 2 -23 -10 12 -25 55 -18 55 3 0
10 -15 16 -32z m-182 -92 c-5 -13 -35 55 -42 93 -3 14 6 2 20 -28 14 -29 24
-59 22 -65z m923 89 c-20 -53 -52 -107 -75 -127 -13 -11 -21 -26 -19 -33 3 -6
-2 -18 -11 -25 -15 -12 -22 0 -8 14 4 4 8 17 8 29 1 12 2 41 3 64 2 38 6 44
50 71 58 38 64 38 52 7z m-1719 -27 c53 -141 143 -353 150 -356 4 -2 5 -10 2
-19 -4 -11 -2 -14 5 -9 8 5 10 1 5 -10 -5 -13 -3 -15 7 -9 10 6 12 4 7 -8 -3
-10 -2 -17 3 -17 5 0 6 -7 3 -17 -4 -10 -2 -14 4 -10 7 5 9 -1 5 -15 -3 -14
-1 -19 6 -14 8 5 10 1 5 -10 -4 -12 -3 -15 5 -10 7 4 10 2 7 -6 -3 -8 13 -58
35 -112 22 -55 38 -101 36 -103 -2 -2 -25 48 -51 112 -26 63 -49 114 -51 112
-2 -2 21 -65 51 -140 30 -75 55 -139 55 -142 0 -3 -5 -5 -12 -5 -6 0 -21 -9
-33 -20 l-21 -20 -36 123 c-20 67 -75 255 -122 417 -48 162 -89 303 -92 313
-11 36 12 15 27 -25z m756 -13 c11 -30 17 -57 13 -60 -5 -3 -18 20 -29 50 -23
62 -24 65 -13 65 4 0 17 -25 29 -55z m-45 2 c31 -76 31 -74 5 -79 -21 -4 -28
2 -46 39 -31 63 -29 71 19 82 3 0 13 -18 22 -42z m-61 -24 c11 -27 21 -52 22
-58 1 -5 5 -12 8 -15 15 -12 58 -110 49 -110 -11 0 -110 195 -110 218 0 24 11
11 31 -35z m448 -13 c0 -13 -1 -13 -8 0 -5 8 -12 26 -15 40 l-7 25 15 -25 c9
-14 15 -32 15 -40z m-493 -14 c10 -27 19 -45 21 -39 2 5 -5 31 -16 56 -11 26
-16 47 -11 47 9 0 51 -102 44 -109 -8 -9 -54 -8 -48 0 9 15 -17 70 -29 62 -7
-4 -8 0 -4 11 4 10 7 23 7 29 0 20 17 -7 36 -57z m-512 -3 c14 -29 24 -53 21
-53 -5 0 -55 95 -55 106 0 12 6 2 34 -53z m458 48 c7 10 7 8 3 -8 -3 -12 1
-35 9 -52 9 -17 16 -36 15 -43 0 -7 -11 10 -25 37 -13 28 -23 57 -23 65 0 12
2 12 6 1 5 -11 7 -11 15 0z m488 -37 c11 -26 20 -54 19 -63 0 -15 -29 41 -43
87 -13 39 2 24 24 -24z m-1116 14 c-5 -7 0 -9 14 -6 17 5 22 2 22 -12 0 -10
-7 -20 -15 -24 -8 -3 -15 -13 -15 -23 0 -15 -2 -16 -10 -3 -13 20 -13 93 0 85
6 -4 7 -11 4 -17z m598 3 c0 -9 1 -22 1 -28 -1 -7 3 -11 7 -8 4 3 13 -8 18
-25 7 -20 7 -32 1 -36 -6 -3 -12 -4 -13 -3 -11 12 -46 91 -46 102 0 19 30 17
32 -2z m1082 -39 c-8 -63 -8 -63 -75 -101 -65 -36 -66 -36 -72 -13 -4 13 -5
11 -6 -6 -1 -18 -16 -29 -78 -57 -42 -20 -77 -34 -79 -32 -1 1 -6 25 -9 53
l-7 50 83 37 c46 20 87 37 91 37 4 0 9 -15 11 -32 4 -31 4 -30 6 7 1 39 4 41
69 76 37 21 68 36 70 34 2 -1 0 -25 -4 -53z m-1689 -51 c3 -6 2 -11 -3 -11
-14 0 -36 86 -26 102 6 8 11 -3 15 -34 4 -26 10 -52 14 -57z m485 47 c9 -26
24 -47 38 -53 12 -5 22 -13 22 -16 0 -12 -84 -18 -97 -7 -9 7 -13 7 -13 -1 0
-7 -22 -11 -59 -11 l-59 0 -36 58 -36 57 67 3 c55 2 70 0 82 -15 12 -15 13
-16 8 -1 -7 19 5 26 43 27 21 1 28 -6 40 -41z m34 27 c-3 -6 0 -22 6 -36 10
-22 10 -22 4 6 -7 38 -1 31 20 -20 11 -27 12 -35 2 -23 -7 10 -16 15 -19 11
-4 -3 -14 10 -22 30 -18 44 -18 44 -1 44 8 0 12 -6 10 -12z m520 4 c-2 -5 -2
-20 2 -34 4 -17 9 -23 14 -15 5 8 11 1 18 -19 9 -25 8 -31 -3 -31 -8 0 -22 12
-30 28 -15 25 -14 15 1 -23 3 -8 1 -15 -4 -15 -10 0 -52 82 -52 101 0 17 17 9
28 -13 11 -22 11 -22 6 3 -4 19 -1 26 10 26 8 0 13 -4 10 -8z m-55 -119 c0 -8
-11 5 -24 30 -13 25 -24 54 -24 65 1 23 48 -71 48 -95z m9 58 c24 -57 23 -77
-2 -29 -25 47 -36 81 -28 81 5 0 18 -23 30 -52z m-50 -20 c12 -27 19 -48 17
-48 -6 0 -55 96 -55 107 0 15 18 -14 38 -59z m-9 -48 c0 -8 -11 5 -24 30 -13
25 -24 52 -24 60 0 8 11 -5 24 -30 13 -25 24 -52 24 -60z m-41 38 c29 -68 20
-74 -12 -9 -28 55 -30 61 -18 61 4 0 18 -23 30 -52z m-34 -7 c23 -45 24 -61 5
-61 -8 0 -49 84 -49 100 0 25 22 6 44 -39z m-35 -13 c20 -50 20 -52 1 -28 -23
29 -43 80 -31 80 5 0 18 -24 30 -52z m-55 -15 c14 -29 23 -53 18 -53 -9 0 -52
84 -52 102 0 16 4 10 34 -49z m-491 -45 c60 -79 129 -144 219 -204 68 -46 74
-53 20 -23 -96 52 -232 187 -297 294 -27 43 -8 22 58 -67z m478 15 c47 -107
47 -110 -5 -18 -47 82 -52 95 -38 95 5 0 24 -35 43 -77z m-67 55 c-3 -4 4 -22
16 -38 12 -17 16 -30 11 -30 -10 0 -51 57 -51 71 0 3 7 6 15 6 8 0 12 -4 9 -9z
m480 -4 c4 -10 1 -14 -6 -12 -15 5 -23 28 -10 28 5 0 13 -7 16 -16z m-545 -24
c11 -24 11 -24 -3 -6 -9 11 -16 24 -16 30 0 12 5 7 19 -24z m36 0 c9 -16 11
-30 6 -30 -6 0 -17 14 -26 30 -9 17 -11 30 -6 30 6 0 17 -13 26 -30z m465 20
c5 8 9 7 13 -5 4 -9 3 -13 -3 -10 -6 3 -10 -2 -10 -12 0 -15 -2 -16 -10 -3 -5
8 -9 22 -9 30 0 12 2 12 6 1 4 -10 7 -10 13 -1z m539 -27 c-13 -35 -37 -61
-71 -79 -16 -8 -27 -19 -25 -25 1 -6 -9 -18 -23 -27 -17 -12 -22 -13 -16 -3 5
8 10 29 12 48 2 18 6 38 9 43 5 8 108 67 122 70 1 0 -2 -12 -8 -27z m-1066
-13 c25 -16 54 -30 64 -30 12 0 37 -24 67 -66 26 -36 46 -68 44 -69 -2 -2 -32
-8 -67 -14 -71 -11 -85 -6 -145 58 -31 33 -29 37 29 44 18 2 9 5 -22 6 -48 1
-54 4 -78 38 -30 45 -30 50 -7 56 42 11 74 5 115 -23z m466 8 c11 -23 11 -23
6 2 -5 21 -4 22 5 7 6 -9 8 -22 5 -27 -3 -5 -1 -19 5 -30 6 -12 9 -26 7 -33
-3 -10 -57 82 -57 98 0 14 18 3 29 -17z m45 -18 l7 -25 -15 25 c-17 28 -21 50
-7 35 5 -6 12 -21 15 -35z m-634 -13 c14 -23 26 -45 28 -49 2 -3 -7 -8 -20
-11 -19 -3 -17 -5 7 -6 22 -1 43 -13 73 -44 23 -23 42 -46 42 -51 0 -14 -65 6
-100 32 -44 32 -170 154 -170 164 0 5 26 8 58 8 57 0 57 -1 82 -43z m589 -52
c0 -5 -11 10 -24 35 -13 25 -24 50 -24 55 0 6 11 -10 24 -35 13 -25 24 -49 24
-55z m-44 35 c14 -27 23 -50 20 -50 -2 0 -16 23 -30 50 -14 28 -23 50 -20 50
2 0 16 -22 30 -50z m340 -1 c9 -61 12 -58 -108 -98 l-87 -30 -15 22 c-8 13
-16 33 -17 46 -3 20 9 27 102 66 58 24 108 44 112 44 3 1 9 -22 13 -50z m-384
-10 c11 -22 19 -45 17 -50 -2 -6 -16 15 -31 46 -15 31 -23 54 -17 50 6 -3 19
-24 31 -46z m24 1 c14 -27 23 -50 20 -50 -2 0 -16 23 -30 50 -14 28 -23 50
-20 50 2 0 16 -22 30 -50z m-49 -19 c13 -28 21 -51 19 -51 -5 0 -55 96 -55
106 0 14 13 -6 36 -55z m-30 -2 c14 -28 23 -53 20 -56 -10 -10 -27 9 -51 58
-20 39 -22 49 -10 49 8 0 26 -23 41 -51z m-62 -16 c14 -29 24 -53 22 -53 -8 0
-56 86 -56 100 0 18 3 13 34 -47z m20 10 c15 -25 24 -48 22 -51 -3 -2 -16 19
-30 47 -33 64 -27 67 8 4z m-50 -10 c15 -25 25 -51 23 -56 -2 -8 -57 83 -57
97 0 15 10 3 34 -41z m706 38 c0 -43 -40 -79 -125 -111 -23 -9 -25 -7 -25 23
0 30 5 35 63 64 65 33 87 39 87 24z m-761 -60 c13 -23 21 -44 18 -47 -5 -6
-67 76 -67 89 0 20 27 -3 49 -42z m360 -27 c7 -19 11 -37 9 -38 -1 -1 -19 -7
-39 -13 -33 -9 -36 -9 -32 8 3 11 9 19 13 19 5 0 11 14 15 30 9 39 18 38 34
-6z m-59 -9 c0 -5 -5 -3 -10 5 -5 8 -10 20 -10 25 0 6 5 3 10 -5 5 -8 10 -19
10 -25z m300 0 c0 -28 -15 -38 -111 -70 l-69 -24 -15 30 c-9 16 -14 29 -13 29
2 0 46 15 98 33 52 19 98 32 103 30 4 -2 7 -15 7 -28z m-360 15 c0 -5 9 -19
21 -31 20 -20 20 -37 0 -24 -17 10 -43 65 -31 65 5 0 10 -4 10 -10z m-10 -40
c11 -22 18 -40 15 -40 -6 0 -45 62 -45 73 0 16 11 5 30 -33z m495 20 c-17 -19
-97 -70 -109 -70 -3 0 -6 8 -6 19 0 12 18 26 58 44 69 32 81 33 57 7z m-526
-26 c23 -39 25 -44 14 -44 -8 0 -53 65 -53 75 0 16 21 0 39 -31z m-49 -21 c12
-20 16 -32 8 -26 -17 15 -54 78 -40 70 5 -4 20 -24 32 -44z m-42 12 c6 -14 10
-25 8 -25 -2 0 -11 11 -20 25 -9 14 -13 25 -8 25 5 0 14 -11 20 -25z m-19 -35
c25 -38 -7 -20 -38 20 l-26 35 24 -16 c14 -8 32 -26 40 -39z m-44 10 c16 -16
26 -32 23 -35 -3 -3 -28 -6 -56 -6 -36 -1 -62 5 -87 20 -48 28 -57 26 -20 -5
l30 -25 -60 26 c-75 33 -78 36 -30 35 22 -1 60 3 85 8 73 15 85 13 115 -18z
m353 -5 c9 -20 9 -27 -1 -29 -6 -3 -34 -11 -60 -20 -56 -18 -77 -13 -77 19 0
18 9 27 43 38 62 23 82 21 95 -8z m202 10 c0 -8 -14 -24 -32 -34 -33 -21 -170
-61 -206 -61 -31 0 -18 26 20 39 26 9 33 8 45 -7 13 -16 13 -16 11 1 -2 15 13
25 72 47 90 34 90 34 90 15z m190 6 c0 -5 -7 -12 -16 -15 -14 -5 -15 -4 -4 9
14 17 20 19 20 6z m-550 -47 c0 -8 -4 -12 -10 -9 -5 3 -10 10 -10 16 0 5 5 9
10 9 6 0 10 -7 10 -16z m480 1 c0 -2 -10 -9 -22 -15 -22 -11 -22 -10 -4 4 21
17 26 19 26 11z m-590 -44 l25 -20 -40 5 c-49 7 -95 24 -95 35 0 11 52 16 70
7 8 -4 26 -16 40 -27z m470 14 c0 -8 -4 -15 -9 -15 -5 0 -11 7 -15 15 -3 9 0
15 9 15 8 0 15 -7 15 -15z m-720 -35 c8 -5 11 -10 5 -10 -5 0 -17 5 -25 10 -8
5 -10 10 -5 10 6 0 17 -5 25 -10z m720 0 c-8 -5 -19 -10 -25 -10 -5 0 -3 5 5
10 8 5 20 10 25 10 6 0 3 -5 -5 -10z m10 -36 c0 -8 -4 -12 -10 -9 -5 3 -10 10
-10 16 0 5 5 9 10 9 6 0 10 -7 10 -16z m-593 -10 c-3 -3 -12 -4 -19 -1 -8 3
-5 6 6 6 11 1 17 -2 13 -5z m450 0 c-3 -3 -12 -4 -19 -1 -8 3 -5 6 6 6 11 1
17 -2 13 -5z m-400 -10 c-3 -3 -12 -4 -19 -1 -8 3 -5 6 6 6 11 1 17 -2 13 -5z
m350 0 c-3 -3 -12 -4 -19 -1 -8 3 -5 6 6 6 11 1 17 -2 13 -5z m-279 -11 c-10
-2 -26 -2 -35 0 -10 3 -2 5 17 5 19 0 27 -2 18 -5z m225 0 c-7 -2 -21 -2 -30
0 -10 3 -4 5 12 5 17 0 24 -2 18 -5z m-105 -10 c-10 -2 -26 -2 -35 0 -10 3 -2
5 17 5 19 0 27 -2 18 -5z m-395 -70 c-7 -2 -19 -2 -25 0 -7 3 -2 5 12 5 14 0
19 -2 13 -5z m99 -55 c-6 -6 -8 -1 -7 14 4 39 8 44 12 19 3 -13 0 -28 -5 -33z
m25 5 c-3 -10 -5 -2 -5 17 0 19 2 27 5 18 2 -10 2 -26 0 -35z m-68 17 c1 18 4
21 10 11 5 -7 6 -22 4 -32 -7 -26 -33 -5 -32 25 1 19 2 18 9 -4 l8 -25 1 25z
m378 -27 c-3 -10 -5 -2 -5 17 0 19 2 27 5 18 2 -10 2 -26 0 -35z m20 10 c-3
-10 -5 -4 -5 12 0 17 2 24 5 18 2 -7 2 -21 0 -30z m-536 0 l1 -28 8 30 8 30 2
-30 3 -30 4 28 c6 36 23 35 23 -2 0 -21 -6 -30 -22 -35 -42 -11 -48 -7 -48 29
0 41 19 48 21 8z m694 -10 c-7 -38 -12 -50 -19 -42 -7 9 7 79 16 79 6 0 8 -14
3 -37z m-748 -25 c-2 -13 -4 -5 -4 17 -1 22 1 32 4 23 2 -10 2 -28 0 -40z m20
0 c-2 -13 -4 -5 -4 17 -1 22 1 32 4 23 2 -10 2 -28 0 -40z m140 20 c-3 -7 -5
-2 -5 12 0 14 2 19 5 13 2 -7 2 -19 0 -25z m-177 7 c0 -8 -2 -15 -4 -15 -2 0
-6 7 -10 15 -3 8 -1 15 4 15 6 0 10 -7 10 -15z m860 -10 c3 25 4 23 10 -15 l7
-45 1 38 c2 42 22 52 22 10 0 -44 -14 -59 -42 -46 -21 9 -24 16 -19 49 l5 39
7 -30 7 -30 2 30z m71 -17 l1 -23 6 23 c6 20 9 21 26 9 17 -13 17 -15 -14 -40
-17 -15 -35 -25 -39 -23 -10 7 -1 76 10 76 5 0 9 -10 10 -22z m-1021 -33 c0
-5 -5 -3 -10 5 -5 8 -10 20 -10 25 0 6 5 3 10 -5 5 -8 10 -19 10 -25z m740 14
c127 -15 312 -61 298 -75 -17 -16 -138 -47 -232 -59 -135 -17 -395 -12 -516 9
-155 28 -150 26 -165 64 -8 19 -15 36 -15 38 0 11 101 28 205 34 131 8 293 4
425 -11z m368 -161 c-34 -26 -38 -23 -37 30 l2 47 7 -40 7 -40 2 47 c0 29 7
53 19 64 16 17 17 15 20 -36 3 -47 0 -56 -20 -72z m-1124 96 c11 -4 16 -19 16
-52 0 -44 0 -45 -20 -27 -12 11 -20 31 -20 52 0 36 0 36 24 27z m46 -64 c0
-22 -4 -40 -10 -40 -5 0 -10 18 -10 40 0 22 5 40 10 40 6 0 10 -18 10 -40z
m30 -11 c0 -21 -4 -39 -10 -39 -5 0 -10 21 -10 46 0 27 4 43 10 39 6 -3 10
-24 10 -46z m997 -26 c-2 -16 -4 -5 -4 22 0 28 2 40 4 28 2 -13 2 -35 0 -50z
m-971 -21 c-13 -12 -18 9 -10 45 l8 38 4 -39 c2 -21 1 -41 -2 -44z m954 36 c0
-49 -5 -47 -14 5 -4 23 -3 37 4 37 5 0 10 -19 10 -42z m-926 -5 c-9 -52 -14
-54 -14 -5 0 23 5 42 10 42 7 0 8 -14 4 -37z m23 -5 c-3 -7 -5 -2 -5 12 0 14
2 19 5 13 2 -7 2 -19 0 -25z m133 -34 c0 -32 -4 -44 -12 -41 -12 4 -14 46 -4
74 10 25 16 13 16 -33z m647 -16 c-2 -13 -4 -3 -4 22 0 25 2 35 4 23 2 -13 2
-33 0 -45z m-87 8 c0 -47 -11 -56 -72 -56 -22 0 -28 5 -29 23 -2 22 -2 22 -6
0 -3 -17 -11 -21 -34 -21 -27 1 -29 4 -29 40 0 40 24 55 33 21 4 -14 5 -13 6
4 1 19 8 22 54 26 28 2 58 4 65 5 8 1 12 -12 12 -42z m67 -18 c-2 -13 -4 -5
-4 17 -1 22 1 32 4 23 2 -10 2 -28 0 -40z m-505 2 c-2 -22 -6 -40 -8 -40 -2 0
-4 18 -4 40 0 22 3 40 8 40 4 0 6 -18 4 -40z m25 -22 c-2 -13 -4 -3 -4 22 0
25 2 35 4 23 2 -13 2 -33 0 -45z m23 -5 c-11 -17 -11 -17 -6 0 3 10 7 31 7 45
l2 27 4 -27 c2 -15 -1 -35 -7 -45z m40 27 c0 -22 -4 -40 -10 -40 -5 0 -10 18
-10 40 0 22 5 40 10 40 6 0 10 -18 10 -40z m30 0 c0 -22 -4 -40 -10 -40 -5 0
-10 18 -10 40 0 22 5 40 10 40 6 0 10 -18 10 -40z m17 -27 c-2 -16 -4 -5 -4
22 0 28 2 40 4 28 2 -13 2 -35 0 -50z m30 0 c-2 -16 -4 -5 -4 22 0 28 2 40 4
28 2 -13 2 -35 0 -50z m35 22 c-2 -25 -8 -42 -13 -39 -10 6 -12 45 -3 68 12
30 19 16 16 -29z m25 -22 c-2 -16 -4 -5 -4 22 0 28 2 40 4 28 2 -13 2 -35 0
-50z m33 28 c0 -22 -4 -43 -10 -46 -6 -4 -10 12 -10 39 0 25 5 46 10 46 6 0
10 -18 10 -39z"/>
<path d="M1424 2465 c8 -16 22 -39 31 -50 16 -20 16 -19 5 3 -6 12 -8 27 -5
32 3 6 1 10 -6 10 -6 0 -18 8 -26 18 -11 14 -11 11 1 -13z"/>
<path d="M1390 2430 c-8 -5 -10 -10 -5 -10 6 0 17 5 25 10 8 5 11 10 5 10 -5
0 -17 -5 -25 -10z"/>
<path d="M1301 2354 c0 -11 3 -14 6 -6 3 7 2 16 -1 19 -3 4 -6 -2 -5 -13z"/>
<path d="M1311 2320 c1 -24 15 -55 21 -44 2 5 -1 20 -8 34 -8 14 -13 18 -13
10z"/>
<path d="M1549 2254 c6 -12 8 -24 5 -26 -3 -3 1 -8 8 -10 7 -3 21 4 31 15 19
19 18 19 -3 12 -15 -5 -26 -1 -36 12 -14 17 -15 17 -5 -3z"/>
<path d="M1335 2240 c3 -14 8 -42 11 -63 6 -34 24 -63 24 -38 0 5 8 12 18 14
14 4 13 5 -4 6 -16 1 -25 13 -37 54 -9 28 -14 41 -12 27z"/>
<path d="M1465 2190 c-33 -16 -55 -29 -50 -29 6 0 37 13 70 29 33 15 56 28 50
28 -5 0 -37 -12 -70 -28z"/>
<path d="M1605 2151 l26 -52 -43 -20 c-24 -11 -35 -17 -25 -14 61 17 68 17 83
-1 13 -18 14 -17 9 7 -5 20 -1 28 17 37 21 10 21 11 -8 6 -28 -5 -32 -2 -49
36 -10 22 -22 43 -27 46 -5 4 2 -17 17 -45z"/>
<path d="M1380 2070 c0 -8 5 -22 10 -30 9 -13 10 -13 10 0 0 8 -5 22 -10 30
-9 13 -10 13 -10 0z"/>
<path d="M1500 2045 c-14 -8 -20 -14 -15 -14 6 0 21 6 35 14 14 8 21 14 15 14
-5 0 -21 -6 -35 -14z"/>
<path d="M1660 2038 c0 -4 8 -23 17 -43 10 -22 13 -39 7 -44 -11 -11 -219
-101 -233 -101 -6 0 -12 -4 -15 -9 -7 -11 9 -8 44 7 14 6 69 29 123 51 l97 40
35 -67 c40 -78 46 -78 10 0 -14 29 -25 58 -25 64 0 6 23 21 50 33 67 29 64 36
-5 9 -31 -11 -57 -19 -59 -17 -2 2 -13 22 -24 44 -12 22 -21 37 -22 33z"/>
<path d="M1435 2021 c-11 -5 -22 -7 -25 -6 -3 2 -11 -3 -18 -11 -18 -19 -3
-17 44 6 38 19 38 26 -1 11z"/>
<path d="M1411 1964 c0 -11 3 -14 6 -6 3 7 2 16 -1 19 -3 4 -6 -2 -5 -13z"/>
<path d="M1210 1934 c0 -8 5 -12 10 -9 6 4 8 11 5 16 -9 14 -15 11 -15 -7z"/>
<path d="M1042 1920 c-1 -14 3 -43 7 -65 l9 -40 0 35 c0 19 -4 49 -8 65 -7 27
-8 28 -8 5z"/>
<path d="M1421 1935 c1 -19 18 -51 18 -35 0 8 -4 22 -9 30 -5 8 -9 11 -9 5z"/>
<path d="M1221 1884 c0 -11 3 -14 6 -6 3 7 2 16 -1 19 -3 4 -6 -2 -5 -13z"/>
<path d="M1232 1830 c0 -14 2 -19 5 -12 2 6 2 18 0 25 -3 6 -5 1 -5 -13z"/>
<path d="M1360 1810 c-8 -5 -10 -10 -5 -10 6 0 17 5 25 10 8 5 11 10 5 10 -5
0 -17 -5 -25 -10z"/>
<path d="M1460 1813 c0 -4 5 -15 10 -23 8 -13 10 -13 10 2 0 9 -4 20 -10 23
-5 3 -10 3 -10 -2z"/>
<path d="M1237 1779 c-5 -20 0 -24 19 -11 9 5 8 10 -1 19 -10 9 -14 8 -18 -8z"/>
<path d="M1675 1741 c-22 -11 -35 -19 -30 -19 14 -1 93 36 80 37 -5 0 -28 -8
-50 -18z"/>
<path d="M1261 1704 c0 -11 3 -14 6 -6 3 7 2 16 -1 19 -3 4 -6 -2 -5 -13z"/>
<path d="M1585 1705 c-25 -12 -26 -14 -5 -9 28 7 60 23 45 23 -5 0 -23 -6 -40
-14z"/>
<path d="M1510 1678 c-14 -6 -20 -12 -13 -15 7 -2 23 3 35 11 25 18 15 20 -22
4z"/>
<path d="M1520 1645 c0 -5 5 -17 10 -25 5 -8 10 -10 10 -5 0 6 -5 17 -10 25
-5 8 -10 11 -10 5z"/>
<path d="M2190 2346 c0 -11 43 -76 47 -72 3 3 -5 21 -17 40 -20 33 -30 43 -30
32z"/>
<path d="M2220 2335 c0 -5 9 -21 20 -35 11 -14 20 -20 20 -15 0 6 -9 21 -20
35 -11 14 -20 21 -20 15z"/>
<path d="M2020 2346 c0 -2 8 -10 18 -17 15 -13 16 -12 3 4 -13 16 -21 21 -21
13z"/>
<path d="M912 2120 c0 -14 2 -19 5 -12 2 6 2 18 0 25 -3 6 -5 1 -5 -13z"/>
<path d="M932 2120 c0 -14 2 -19 5 -12 2 6 2 18 0 25 -3 6 -5 1 -5 -13z"/>
<path d="M1937 2173 c4 -11 3 -14 -5 -9 -16 10 -14 -5 3 -28 14 -18 45 -31 45
-19 0 8 -41 73 -46 73 -2 0 0 -7 3 -17z m17 -29 c3 -8 2 -12 -4 -9 -6 3 -10
10 -10 16 0 14 7 11 14 -7z"/>
<path d="M991 2163 c0 -4 4 -17 9 -28 8 -19 9 -19 9 2 1 12 -3 25 -9 28 -5 3
-10 3 -9 -2z"/>
<path d="M862 2095 c0 -16 2 -22 5 -12 2 9 2 23 0 30 -3 6 -5 -1 -5 -18z"/>
<path d="M1940 1955 c0 -5 5 -17 10 -25 5 -8 10 -10 10 -5 0 6 -5 17 -10 25
-5 8 -10 11 -10 5z"/>
<path d="M878 1513 c6 -2 18 -2 25 0 6 3 1 5 -13 5 -14 0 -19 -2 -12 -5z"/>
<path d="M1310 1525 c0 -5 5 -17 10 -25 5 -8 10 -10 10 -5 0 6 -5 17 -10 25
-5 8 -10 11 -10 5z"/>
<path d="M1260 1485 c0 -5 5 -17 10 -25 5 -8 10 -10 10 -5 0 6 -5 17 -10 25
-5 8 -10 11 -10 5z"/>
<path d="M840 955 c0 -5 5 -17 10 -25 5 -8 10 -10 10 -5 0 6 -5 17 -10 25 -5
8 -10 11 -10 5z"/>
<path d="M1350 1415 c0 -5 5 -17 10 -25 5 -8 10 -10 10 -5 0 6 -5 17 -10 25
-5 8 -10 11 -10 5z"/>
<path d="M1370 1365 c0 -5 5 -17 10 -25 5 -8 10 -10 10 -5 0 6 -5 17 -10 25
-5 8 -10 11 -10 5z"/>
<path d="M1243 1143 c9 -2 23 -2 30 0 6 3 -1 5 -18 5 -16 0 -22 -2 -12 -5z"/>
</g>
</svg>
